<svg width="19" height="16" viewBox="0 0 19 16" fill="none" xmlns="http://www.w3.org/2000/svg">
<path d="M1.37012 7.13351C0.792059 7.13351 0.323451 7.60212 0.323451 8.18018C0.323451 8.75823 0.792059 9.22684 1.37012 9.22684V8.18018V7.13351ZM17.8102 8.92028C18.219 8.51153 18.219 7.84882 17.8102 7.44007L11.1493 0.779125C10.7405 0.370376 10.0778 0.370376 9.66907 0.779125C9.26032 1.18787 9.26032 1.85059 9.66907 2.25934L15.5899 8.18018L9.66907 14.101C9.26032 14.5098 9.26032 15.1725 9.66907 15.5812C10.0778 15.99 10.7405 15.99 11.1493 15.5812L17.8102 8.92028ZM1.37012 8.18018V9.22684H17.0701V8.18018V7.13351H1.37012V8.18018Z" fill="#1A4087"/>
</svg>
