<svg width="21" height="20" viewBox="0 0 21 20" fill="none" xmlns="http://www.w3.org/2000/svg">
<path fill-rule="evenodd" clip-rule="evenodd" d="M11.0883 13.0893C10.932 13.2455 10.7201 13.3333 10.4991 13.3333C10.2782 13.3333 10.0663 13.2455 9.90998 13.0893L5.19581 8.37512C5.11622 8.29825 5.05274 8.2063 5.00906 8.10463C4.96539 8.00296 4.9424 7.89361 4.94144 7.78296C4.94048 7.67231 4.96156 7.56258 5.00346 7.46016C5.04536 7.35775 5.10724 7.2647 5.18548 7.18646C5.26373 7.10822 5.35677 7.04634 5.45918 7.00444C5.5616 6.96254 5.67133 6.94145 5.78198 6.94241C5.89263 6.94338 6.00198 6.96636 6.10365 7.01004C6.20532 7.05371 6.29727 7.1172 6.37415 7.19679L10.4991 11.3218L14.6241 7.19679C14.7813 7.04499 14.9918 6.961 15.2103 6.96289C15.4288 6.96479 15.6378 7.05243 15.7923 7.20694C15.9468 7.36145 16.0345 7.57046 16.0364 7.78896C16.0383 8.00745 15.9543 8.21795 15.8025 8.37512L11.0883 13.0893Z" fill="black"/>
</svg>
