<svg width="24" height="24" viewBox="0 0 24 24" fill="none" xmlns="http://www.w3.org/2000/svg">
<g clip-path="url(#clip0_690_3518)">
<path d="M11.8949 6.08803C11.1275 6.0916 10.3684 6.2463 9.66089 6.5433C8.95336 6.8403 8.31127 7.27378 7.77129 7.81897C7.23132 8.36417 6.80404 9.0104 6.51387 9.72076C6.22369 10.4311 6.0763 11.1917 6.08012 11.959C6.08369 12.7263 6.23839 13.4855 6.53539 14.193C6.83238 14.9005 7.26586 15.5426 7.81106 16.0826C8.35625 16.6226 9.00249 17.0498 9.71284 17.34C10.4232 17.6302 11.1838 17.7776 11.9511 17.7738C12.7184 17.7702 13.4775 17.6155 14.1851 17.3185C14.8926 17.0215 15.5347 16.588 16.0747 16.0428C16.6146 15.4976 17.0419 14.8514 17.3321 14.141C17.6223 13.4307 17.7697 12.6701 17.7658 11.9028C17.7623 11.1355 17.6076 10.3763 17.3106 9.66881C17.0136 8.96127 16.5801 8.31918 16.0349 7.77921C15.4897 7.23924 14.8435 6.81196 14.1331 6.52178C13.4228 6.23161 12.6622 6.08422 11.8949 6.08803ZM11.9412 15.7234C11.1914 15.7268 10.4574 15.5078 9.83207 15.0941C9.2067 14.6804 8.71803 14.0906 8.42784 13.3992C8.13765 12.7078 8.05898 11.9459 8.20177 11.2098C8.34456 10.4737 8.70239 9.79649 9.23004 9.26374C9.75768 8.731 10.4314 8.36666 11.1661 8.2168C11.9008 8.06693 12.6634 8.13827 13.3576 8.42179C14.0517 8.70531 14.6462 9.18828 15.0659 9.80964C15.4856 10.431 15.7116 11.1628 15.7154 11.9126C15.7181 12.4108 15.6225 12.9045 15.4342 13.3656C15.246 13.8268 14.9686 14.2463 14.6181 14.6002C14.2676 14.9541 13.8508 15.2355 13.3914 15.4282C12.9321 15.6209 12.4393 15.7212 11.9412 15.7234Z" fill="#66CCFF"/>
<path d="M16.5584 0.598883C14.4629 0.511235 9.27384 0.54095 7.17739 0.644025C5.33518 0.739235 3.71199 1.19205 2.40797 2.50869C0.228615 4.70911 0.522718 7.65861 0.543543 11.9862C0.564856 16.4153 0.332033 19.299 2.49909 21.4453C4.70809 23.6322 7.70025 23.3303 11.9766 23.3098C16.364 23.2886 17.8783 23.2842 19.4268 22.6761C21.532 21.8471 23.1151 19.9542 23.2544 16.5671C23.343 14.4706 23.3124 9.28249 23.2093 7.18604C23.0022 3.18954 20.8452 0.775615 16.5584 0.598883ZM19.9676 19.9124C18.5389 21.3549 16.5467 21.2364 11.9392 21.2585C7.19509 21.2814 5.29304 21.3607 3.89821 19.9755C2.29178 18.392 2.56888 15.8354 2.55023 11.9614C2.52501 6.71911 1.96886 2.94632 7.2288 2.65154C8.43739 2.60302 8.79314 2.58708 11.836 2.57244L11.8789 2.6007C16.9351 2.57636 20.8996 2.02783 21.1631 7.28697C21.223 8.48697 21.237 8.84747 21.2516 11.8856C21.2733 16.5747 21.3717 18.4881 19.9676 19.9124Z" fill="#66CCFF"/>
<path d="M17.9729 7.19247C18.7269 7.18884 19.3353 6.57461 19.3316 5.82054C19.328 5.06647 18.7138 4.45812 17.9597 4.46175C17.2057 4.46538 16.5973 5.07961 16.6009 5.83368C16.6046 6.58775 17.2188 7.1961 17.9729 7.19247Z" fill="#66CCFF"/>
</g>
<defs>
<clipPath id="clip0_690_3518">
<rect width="22.7725" height="22.7725" fill="white" transform="translate(0.477417 0.604675) rotate(-0.275709)"/>
</clipPath>
</defs>
</svg>
