<svg width="32" height="23" viewBox="0 0 32 23" fill="none" xmlns="http://www.w3.org/2000/svg">
<path d="M30.3702 1.98105C29.2289 0.65294 27.1309 0.119047 23.1292 0.138304L8.60295 0.208205C4.50965 0.227902 2.38155 0.817222 1.25773 2.24245C0.162032 3.63206 0.171847 5.67172 0.185431 8.49466L0.211322 13.8752C0.237639 19.3441 1.55894 22.1145 8.7082 22.0801L23.2345 22.0102C26.7048 21.9935 28.6254 21.5043 29.8638 20.3214C31.1338 19.1084 31.6687 17.1353 31.6522 13.7239L31.6263 8.34337C31.612 5.36634 31.5168 3.31506 30.3702 1.98105ZM20.3871 11.8306L13.8072 15.2701C13.653 15.3508 13.4804 15.3908 13.306 15.3862C13.1316 15.3817 12.9613 15.3327 12.8117 15.2441C12.662 15.1555 12.538 15.0302 12.4517 14.8803C12.3654 14.7305 12.3197 14.5611 12.3189 14.3887L12.2862 7.59509C12.2854 7.4229 12.3295 7.2534 12.4142 7.10292C12.4989 6.95244 12.6213 6.82606 12.7698 6.73595C12.9182 6.64584 13.0877 6.59504 13.2617 6.58844C13.4358 6.58185 13.6087 6.61969 13.7636 6.69831L20.3762 10.0523C20.5413 10.136 20.6799 10.2629 20.7771 10.4191C20.8743 10.5752 20.9262 10.7548 20.9274 10.9381C20.9285 11.1215 20.8787 11.3017 20.7835 11.459C20.6882 11.6164 20.5511 11.7449 20.3871 11.8306Z" fill="#66CCFF"/>
</svg>
